name rise30.3154peak39.0474fall46.5389.mot
datacolumns 19
datarows 15
range 9.47663300000000 9.49997000000000
endheader
time	ground_force1_vx	ground_force1_vy	ground_force1_vz	ground_force1_px	ground_force1_py	ground_force1_pz	ground_force2_vx	ground_force2_vy	ground_force2_vz	ground_force2_px	ground_force2_py	ground_force2_pz	ground_torque1_x	ground_torque1_y	ground_torque1_z	ground_torque2_x	ground_torque2_y	ground_torque2_z	
9.47663300000000	50.14885500000000	710.49630500000001	53.44168600000000	0.35358100000000	0.00000000000000	0.10725500000000	0.00000000000000	0.00000000000000	0.00000000000000	0.00000000000000	0.00000000000000	0.00000000000000	0.00000000000000	24.55640100000000	0.00000000000000	0.00000000000000	0.00000000000000	0.00000000000000	
9.47830300000000	49.28697900000000	713.22771299999999	53.46238400000000	0.35182500000000	0.00000000000000	0.10729300000000	0.00000000000000	0.00000000000000	0.00000000000000	0.00000000000000	0.00000000000000	0.00000000000000	0.00000000000000	24.54588600000000	0.00000000000000	0.00000000000000	0.00000000000000	0.00000000000000	
9.47996800000000	48.43514400000000	715.94215799999995	53.48852100000000	0.35010900000000	0.00000000000000	0.10732900000000	0.00000000000000	0.00000000000000	0.00000000000000	0.00000000000000	0.00000000000000	0.00000000000000	0.00000000000000	24.54059700000000	0.00000000000000	0.00000000000000	0.00000000000000	0.00000000000000	
9.48163500000000	47.59391900000000	718.63621899999998	53.52028900000000	0.34843300000000	0.00000000000000	0.10736400000000	0.00000000000000	0.00000000000000	0.00000000000000	0.00000000000000	0.00000000000000	0.00000000000000	0.00000000000000	24.54070700000000	0.00000000000000	0.00000000000000	0.00000000000000	0.00000000000000	
9.48330300000000	46.76377400000000	721.30628800000000	53.55777900000000	0.34680000000000	0.00000000000000	0.10739800000000	0.00000000000000	0.00000000000000	0.00000000000000	0.00000000000000	0.00000000000000	0.00000000000000	0.00000000000000	24.54632000000000	0.00000000000000	0.00000000000000	0.00000000000000	0.00000000000000	
9.48497100000000	45.94508100000000	723.94859199999996	53.60098100000000	0.34520900000000	0.00000000000000	0.10743000000000	0.00000000000000	0.00000000000000	0.00000000000000	0.00000000000000	0.00000000000000	0.00000000000000	0.00000000000000	24.55747200000000	0.00000000000000	0.00000000000000	0.00000000000000	0.00000000000000	
9.48663000000000	45.13812100000000	726.55921999999998	53.64978300000000	0.34366200000000	0.00000000000000	0.10746100000000	0.00000000000000	0.00000000000000	0.00000000000000	0.00000000000000	0.00000000000000	0.00000000000000	0.00000000000000	24.57413500000000	0.00000000000000	0.00000000000000	0.00000000000000	0.00000000000000	
9.48830200000000	44.34308400000000	729.13414200000000	53.70398400000000	0.34215800000000	0.00000000000000	0.10749000000000	0.00000000000000	0.00000000000000	0.00000000000000	0.00000000000000	0.00000000000000	0.00000000000000	0.00000000000000	24.59621900000000	0.00000000000000	0.00000000000000	0.00000000000000	0.00000000000000	
9.48996500000000	43.56007500000000	731.66923899999995	53.76328800000000	0.34069800000000	0.00000000000000	0.10751700000000	0.00000000000000	0.00000000000000	0.00000000000000	0.00000000000000	0.00000000000000	0.00000000000000	0.00000000000000	24.62357500000000	0.00000000000000	0.00000000000000	0.00000000000000	0.00000000000000	
9.49163100000000	42.78912100000000	734.16032399999995	53.82731700000000	0.33928200000000	0.00000000000000	0.10754400000000	0.00000000000000	0.00000000000000	0.00000000000000	0.00000000000000	0.00000000000000	0.00000000000000	0.00000000000000	24.65599700000000	0.00000000000000	0.00000000000000	0.00000000000000	0.00000000000000	
9.49329700000000	42.03017300000000	736.60316499999999	53.89561100000000	0.33790900000000	0.00000000000000	0.10756800000000	0.00000000000000	0.00000000000000	0.00000000000000	0.00000000000000	0.00000000000000	0.00000000000000	0.00000000000000	24.69322800000000	0.00000000000000	0.00000000000000	0.00000000000000	0.00000000000000	
9.49497000000000	41.28311200000000	738.99351500000000	53.96763800000000	0.33658000000000	0.00000000000000	0.10759100000000	0.00000000000000	0.00000000000000	0.00000000000000	0.00000000000000	0.00000000000000	0.00000000000000	0.00000000000000	24.73496300000000	0.00000000000000	0.00000000000000	0.00000000000000	0.00000000000000	
9.49663000000000	40.54775500000000	741.32712800000002	54.04279600000000	0.33529300000000	0.00000000000000	0.10761200000000	0.00000000000000	0.00000000000000	0.00000000000000	0.00000000000000	0.00000000000000	0.00000000000000	0.00000000000000	24.78084900000000	0.00000000000000	0.00000000000000	0.00000000000000	0.00000000000000	
9.49829800000000	39.82386200000000	743.59978799999999	54.12042000000000	0.33404800000000	0.00000000000000	0.10763200000000	0.00000000000000	0.00000000000000	0.00000000000000	0.00000000000000	0.00000000000000	0.00000000000000	0.00000000000000	24.83049300000000	0.00000000000000	0.00000000000000	0.00000000000000	0.00000000000000	
9.49997000000000	39.11113800000000	745.80732699999999	54.19979300000000	0.33284400000000	0.00000000000000	0.10764900000000	0.00000000000000	0.00000000000000	0.00000000000000	0.00000000000000	0.00000000000000	0.00000000000000	0.00000000000000	24.88346400000000	0.00000000000000	0.00000000000000	0.00000000000000	0.00000000000000	
